<svg fill="#000000" width="256px" height="256px" viewBox="-4 0 32 32" version="1.1" xmlns="http://www.w3.org/2000/svg" stroke="#000000" stroke-width="0.00032"><g id="SVGRepo_bgCarrier" stroke-width="0"></g><g id="SVGRepo_tracerCarrier" stroke-linecap="round" stroke-linejoin="round" stroke="#CCCCCC" stroke-width="0.256"></g><g id="SVGRepo_iconCarrier"> <title>grayscale</title> <path d="M0 25.344v-18.688h24v18.688h-24zM11.969 21.781v1.969h2v-1.969h2.031v-1.906h-2.031v-1.969h2.031v-1.906h-2.031v-1.938h2.031v-1.906h-2.031v-1.969h2.031v-1.938h-2.031v1.938h-2v-1.938h-2.031v1.938h-1.938v-1.938h-6.406v15.5h8.344v-1.969h2.031zM11.969 10.188v1.969h-2.031v-1.969h2.031zM8 14.063v-1.906h1.938v1.906h-1.938zM13.969 14.063h-2v-1.906h2v1.906zM9.938 14.063h2.031v1.938h-2.031v-1.938zM8 17.906v-1.906h1.938v1.906h-1.938zM13.969 17.906h-2v-1.906h2v1.906zM9.938 19.875v-1.969h2.031v1.969h-2.031zM8 21.781v-1.906h1.938v1.906h-1.938zM11.969 19.875h2v1.906h-2v-1.906z"></path> </g></svg>